<?xml version="1.0" standalone="no"?>
<!DOCTYPE svg PUBLIC "-//W3C//DTD SVG 20010904//EN"
 "http://www.w3.org/TR/2001/REC-SVG-20010904/DTD/svg10.dtd">
<svg version="1.0" xmlns="http://www.w3.org/2000/svg"
 width="300.000000pt" height="300.000000pt" viewBox="0 0 300.000000 300.000000"
 preserveAspectRatio="xMidYMid meet">
<metadata>
Created by potrace 1.14, written by Peter Selinger 2001-2017
</metadata>
<g transform="translate(0.000000,300.000000) scale(0.100000,-0.100000)"
fill="#000000" stroke="none">
<path d="M1108 2943 c-2 -10 -4 -103 -3 -207 1 -184 0 -190 -22 -214 -13 -14
-23 -22 -23 -18 0 4 -10 -2 -22 -13 -11 -11 -25 -18 -30 -15 -4 3 -8 0 -8 -5
0 -6 -6 -11 -14 -11 -7 0 -19 -7 -26 -15 -7 -8 -21 -15 -31 -15 -11 0 -19 -4
-19 -8 0 -5 -18 -17 -40 -27 -22 -10 -40 -22 -40 -27 0 -5 -4 -7 -9 -3 -5 3
-16 -2 -24 -10 -9 -8 -19 -15 -24 -15 -5 0 -25 -11 -46 -25 -20 -14 -37 -23
-37 -20 0 4 -7 -1 -16 -9 -8 -9 -22 -16 -30 -16 -8 0 -14 -3 -14 -8 0 -4 -34
-25 -75 -47 -41 -21 -75 -43 -75 -48 0 -4 -4 -6 -8 -3 -5 3 -19 -3 -32 -12
-25 -18 -82 -49 -137 -76 -18 -9 -33 -21 -33 -27 0 -5 -4 -8 -9 -4 -5 3 -17
-2 -25 -11 -9 -8 -16 -13 -16 -9 0 4 -12 -3 -26 -14 -15 -12 -33 -21 -40 -21
-8 0 -14 -4 -14 -9 0 -9 -33 -24 -53 -26 -8 0 -27 -25 -27 -37 0 -8 93 -63
103 -60 4 1 7 -2 7 -7 0 -5 14 -14 31 -21 17 -7 36 -18 42 -24 7 -6 42 -27 80
-46 37 -19 67 -38 67 -43 0 -4 4 -6 9 -3 5 3 15 -2 22 -12 12 -15 12 -16 -2
-5 -12 10 -22 9 -52 -7 -20 -11 -37 -17 -37 -14 0 4 -12 -5 -26 -19 -15 -15
-30 -24 -35 -21 -5 3 -9 2 -9 -3 0 -4 -10 -13 -23 -19 -60 -30 -112 -60 -115
-66 -2 -5 -9 -8 -16 -8 -7 0 -22 -9 -35 -21 l-22 -21 38 -20 c21 -11 40 -24
41 -29 2 -5 8 -7 13 -3 5 3 9 0 9 -5 0 -6 7 -11 15 -11 8 0 15 -5 15 -11 0 -5
4 -7 10 -4 5 3 10 1 10 -6 0 -7 3 -9 6 -6 4 4 21 -4 38 -16 17 -12 33 -22 36
-23 13 -2 46 -18 50 -24 3 -4 24 -17 47 -29 46 -23 55 -32 23 -24 -11 3 -20 0
-20 -6 0 -6 -6 -11 -13 -11 -8 0 -24 -9 -37 -20 -13 -11 -29 -20 -35 -20 -7 0
-18 -7 -25 -15 -7 -8 -16 -12 -21 -9 -5 3 -9 0 -9 -5 0 -6 -5 -11 -11 -11 -6
0 -24 -9 -40 -21 -16 -11 -29 -17 -29 -12 0 4 -5 0 -11 -10 -6 -9 -14 -15 -20
-12 -5 4 -9 1 -9 -5 0 -6 -4 -8 -10 -5 -5 3 -10 2 -10 -3 0 -5 -9 -12 -20 -15
-11 -3 -20 -13 -20 -22 0 -9 9 -19 20 -22 11 -3 20 -10 20 -15 0 -5 5 -6 10
-3 6 3 13 -1 16 -9 3 -9 10 -14 14 -11 4 3 18 -4 31 -14 13 -10 41 -27 61 -37
67 -35 173 -97 179 -106 3 -6 10 -10 15 -10 23 -2 44 -11 44 -19 0 -5 6 -9 13
-9 7 0 19 -6 26 -12 6 -7 15 -14 19 -14 29 -6 51 -18 46 -25 -5 -8 9 -13 29
-10 4 0 7 -3 7 -9 0 -5 7 -10 15 -10 8 0 15 -3 15 -7 0 -5 20 -16 45 -26 25
-11 45 -24 45 -30 0 -6 3 -8 6 -5 3 3 46 -18 95 -48 49 -30 92 -54 95 -54 3 0
28 -15 57 -33 29 -18 67 -40 85 -48 17 -7 32 -18 33 -24 1 -5 2 -93 3 -195 2
-102 6 -195 10 -207 7 -21 36 -33 36 -15 0 15 41 53 51 47 5 -4 9 -1 9 4 0 6
5 11 11 11 6 0 22 9 36 20 14 11 29 17 34 14 5 -3 9 -1 9 4 0 5 21 20 48 33
26 13 49 27 50 32 2 4 10 7 17 7 8 0 21 7 29 16 9 8 16 13 16 9 0 -3 17 6 37
20 21 14 43 25 49 25 7 0 14 5 16 11 2 5 10 11 19 12 8 2 29 13 47 26 18 12
38 21 45 18 7 -2 46 -75 87 -161 41 -86 79 -155 85 -153 6 2 11 84 13 212 2
189 4 211 21 226 10 10 22 15 25 12 3 -4 6 -1 6 6 0 7 4 10 9 6 6 -3 14 3 20
12 6 10 11 15 11 11 0 -6 95 47 126 69 26 20 56 34 61 29 4 -3 16 4 28 17 11
12 28 23 36 25 7 2 30 13 49 25 19 12 38 21 43 19 4 -1 7 2 7 6 0 9 37 29 54
30 5 0 13 7 18 16 5 9 13 14 19 11 5 -4 9 -1 9 5 0 6 5 8 10 5 6 -3 10 -1 10
5 0 6 5 8 10 5 6 -3 10 -3 10 2 0 10 57 43 75 43 7 0 15 7 19 15 3 8 12 15 20
15 8 0 21 6 28 13 7 6 36 23 63 37 28 13 73 39 101 57 29 18 54 29 58 26 3 -4
6 -1 6 5 0 7 7 12 15 12 8 0 15 3 15 8 0 4 14 13 30 20 31 14 41 42 15 42 -8
0 -15 4 -15 9 0 5 -10 13 -22 18 -13 4 -50 24 -83 43 -33 19 -63 34 -67 32 -5
-1 -8 1 -8 6 0 4 -21 19 -47 32 -27 14 -50 28 -51 33 -2 4 -7 5 -10 3 -4 -2
-12 2 -19 9 -9 10 -6 16 18 25 16 7 29 15 29 19 0 3 20 15 45 26 25 11 45 23
45 27 0 5 6 8 14 8 7 0 25 9 38 20 14 10 28 16 32 13 3 -3 6 -2 6 4 0 6 11 14
25 17 14 4 25 11 25 16 0 6 6 10 13 10 6 0 22 8 35 18 l23 18 -51 29 c-27 17
-50 33 -50 37 0 4 -7 5 -15 2 -8 -4 -15 -2 -15 4 0 5 -8 12 -17 16 -10 3 -36
17 -58 31 -22 14 -57 33 -77 42 -21 9 -38 20 -38 25 0 5 -3 7 -7 5 -5 -3 -14
1 -21 9 -10 11 -8 15 13 20 14 3 25 10 25 15 0 5 6 9 14 9 8 0 17 7 20 16 3 8
10 12 16 9 6 -3 22 3 36 14 15 12 31 21 35 21 5 0 17 7 26 15 10 8 21 15 26
15 4 0 32 15 61 34 30 19 57 32 60 29 3 -4 6 1 6 10 0 18 -68 69 -82 61 -4 -3
-8 0 -8 5 0 6 -7 11 -15 11 -9 0 -18 7 -21 15 -4 8 -10 13 -14 10 -4 -3 -19 5
-34 16 -14 11 -26 17 -26 13 0 -4 -8 0 -17 8 -10 8 -38 26 -63 39 -25 13 -47
26 -50 30 -3 3 -22 13 -42 22 -21 10 -38 22 -38 27 0 6 -3 9 -7 8 -13 -3 -53
13 -53 21 0 4 -16 13 -35 20 -19 7 -35 17 -35 22 0 5 -7 9 -15 9 -8 0 -15 5
-15 11 0 5 -4 8 -8 5 -5 -3 -25 6 -45 20 -20 14 -37 21 -37 17 0 -4 -4 -2 -8
4 -7 12 -63 46 -122 75 -14 7 -27 15 -30 18 -3 3 -25 15 -50 28 -74 39 -125
67 -130 73 -3 3 -13 8 -22 12 -16 6 -18 22 -19 134 0 166 -6 280 -14 293 -4 7
-17 3 -35 -10 -15 -11 -31 -20 -34 -20 -4 0 -24 -11 -45 -24 -21 -14 -42 -22
-45 -19 -3 4 -6 -1 -6 -11 0 -9 -4 -15 -9 -11 -6 3 -29 -8 -53 -24 -23 -16
-46 -27 -50 -25 -5 3 -8 0 -8 -5 0 -6 -7 -11 -15 -11 -8 0 -15 -5 -15 -10 0
-6 -3 -9 -7 -8 -7 2 -81 -39 -191 -104 l-32 -20 -78 159 c-74 152 -103 189
-114 146z m-107 -1990 c13 -16 12 -17 -3 -4 -10 7 -18 15 -18 17 0 8 8 3 21
-13z"/>
</g>
</svg>
